<?xml version="1.0" encoding="UTF-8"?>
<svg xmlns="http://www.w3.org/2000/svg" width="124" height="30.060606060606062" viewBox="0 0 132 32" fill="none"><path d="M48.6084 20.4482C48.6084 23.2633 45.6509 23.8623 43.3597 23.8623C41.3639 23.8623 39.2918 22.9716 38.5531 22.6206C38.38 22.5389 38.2714 22.3658 38.2714 22.1752V19.1676C38.2714 18.9264 38.5463 18.7854 38.7429 18.9264C41.041 20.5873 44.5298 20.9743 44.5298 20.0389C44.5298 19.0324 38.1579 19.2814 38.1579 14.853C38.1579 12.4318 40.32 11.1657 43.212 11.1657C47.1918 11.1657 48.222 13.8213 48.311 15.8925C48.3179 16.0598 48.1819 16.1988 48.0126 16.1988H44.3497C44.1854 16.1988 44.0514 16.0666 44.0514 15.9023V15.7924C44.0514 15.0485 43.798 14.6479 43.2208 14.6479C42.6905 14.6479 42.3902 15.0923 42.3902 15.4734C42.3902 17.7508 48.6094 16.4624 48.6094 20.4473L48.6084 20.4482ZM31.2362 15.4744C31.2362 15.0932 31.5375 14.6488 32.0668 14.6488C32.644 14.6488 32.8974 15.0495 32.8974 15.7934V15.9032C32.8974 16.0666 33.0305 16.1998 33.1958 16.1998H36.8587C37.0269 16.1998 37.1639 16.0608 37.1571 15.8935C37.068 13.8233 36.0378 11.1667 32.058 11.1667C29.166 11.1667 27.0039 12.4327 27.0039 14.854C27.0039 19.2823 33.3758 19.0334 33.3758 20.0398C33.3758 20.9753 29.8881 20.5883 27.589 18.9274C27.3933 18.7854 27.1174 18.9274 27.1174 19.1686V22.1762C27.1174 22.3668 27.227 22.5399 27.3992 22.6216C28.1378 22.9726 30.2099 23.8633 32.2057 23.8633C34.498 23.8633 37.4545 23.2653 37.4545 20.4492C37.4545 16.4643 31.2352 17.7527 31.2352 15.4754L31.2362 15.4744ZM52.0854 5.59967C50.3048 5.59967 49.1426 6.51664 49.1426 8.03456C49.1426 9.55248 50.3058 10.4695 52.0854 10.4695C53.865 10.4695 55.0282 9.55248 55.0282 8.03456C55.0282 6.51664 53.865 5.59967 52.0854 5.59967ZM14.406 17.5106C14.406 21.6599 13.1791 23.8623 10.6922 23.8623C9.51235 23.8623 8.45086 23.3674 7.79636 21.7989L8.11138 26.6774C8.12214 26.8486 7.98616 26.9925 7.81397 26.9925H3.51812C3.35376 26.9925 3.21973 26.8603 3.21973 26.6959V11.8182C3.21973 11.6548 3.35278 11.5216 3.51812 11.5216H6.40028C6.54801 11.5216 6.67324 11.6286 6.69476 11.7734L6.9863 13.8028C7.63787 12.1167 8.82361 11.1657 10.5298 11.1657C13.1146 11.1657 14.406 13.3614 14.406 17.5106ZM9.98978 17.5145C9.98978 15.9237 9.72465 14.6488 8.84317 14.6488C7.9617 14.6488 7.69657 15.9237 7.69657 17.5145C7.69657 19.1054 7.9617 20.3957 8.84317 20.3957C9.72465 20.3957 9.98978 19.1054 9.98978 17.5145ZM25.9356 16.2796V23.1992C25.9356 23.3625 25.8025 23.4957 25.6372 23.4957H22.755C22.6073 23.4957 22.4821 23.3888 22.4606 23.2439L22.2219 21.6832C21.4676 23.0144 20.0725 23.8633 18.6118 23.8633C16.4448 23.8633 15.1945 22.7888 15.1945 20.4249C15.1945 16.8367 18.6666 16.2358 21.6916 16.2932C21.4206 15.49 20.8678 15.0786 19.7408 15.0786C18.2078 15.0786 16.6943 15.9995 15.9527 16.5275C15.7551 16.6675 15.4821 16.5275 15.4821 16.2864V13.4625C15.4821 13.3079 15.5555 13.162 15.6798 13.0687C16.3147 12.5893 18.4191 11.1676 21.0488 11.1676C24.2128 11.1676 25.9366 13.3701 25.9366 16.2805L25.9356 16.2796ZM21.8638 18.9206C21.8667 17.8179 21.7992 17.1314 21.7992 17.1314C21.2308 17.1207 20.137 17.7226 20.1331 19.0626C20.1302 19.8949 20.4119 20.526 21.0293 20.5377C21.6368 20.5494 21.8618 19.8385 21.8638 18.9206ZM54.2417 11.5226H49.9262C49.7619 11.5226 49.6278 11.6548 49.6278 11.8191L49.6357 23.1992C49.6357 23.3625 49.7687 23.4957 49.9341 23.4957H54.2495C54.4138 23.4957 54.5479 23.3635 54.5479 23.1992L54.54 11.8191C54.54 11.6558 54.407 11.5226 54.2417 11.5226ZM66.3358 17.5106C66.3358 21.9769 64.2735 23.8623 60.9481 23.8623C57.6228 23.8623 55.5604 21.9769 55.5604 17.5106C55.5604 13.0444 57.6228 11.1589 60.9481 11.1589C64.2735 11.1589 66.3358 13.0444 66.3358 17.5106ZM62.082 17.5106C62.082 15.9198 61.8198 14.6488 60.9481 14.6488C60.0764 14.6488 59.8142 15.9198 59.8142 17.5106C59.8142 19.1015 60.0764 20.3918 60.9481 20.3918C61.8198 20.3918 62.082 19.1015 62.082 17.5106ZM107.53 17.5106C107.53 21.9769 105.468 23.8623 102.143 23.8623C98.8174 23.8623 96.755 21.9769 96.755 17.5106C96.755 13.0444 98.8174 11.1589 102.143 11.1589C105.468 11.1589 107.53 13.0444 107.53 17.5106ZM103.277 17.5106C103.277 15.9198 103.014 14.6488 102.142 14.6488C101.269 14.6488 101.007 15.9198 101.007 17.5106C101.007 19.1015 101.269 20.3918 102.142 20.3918C103.014 20.3918 103.277 19.1015 103.277 17.5106ZM128.482 14.6488C128.647 14.6488 128.781 14.5166 128.781 14.3523V11.8172C128.781 11.6538 128.648 11.5206 128.482 11.5206H125.239V8.51979C125.239 8.35642 125.106 8.22321 124.941 8.22321H122.314C122.165 8.22321 122.038 8.33309 122.019 8.47992C121.771 10.3761 120.819 11.6548 119.554 11.9718C119.42 12.0049 119.325 12.1225 119.325 12.2596V14.3513C119.325 14.5146 119.458 14.6479 119.624 14.6479H120.315V20.3948C120.315 22.0148 121.46 23.8614 124.472 23.8614C126.849 23.8614 128.157 22.9775 128.603 22.605C128.715 22.5107 128.78 22.3726 128.78 22.2268V19.7384C128.78 19.5021 128.516 19.3621 128.316 19.4914C127.877 19.7792 127.195 20.1478 126.592 20.1478C125.824 20.1478 125.238 19.8911 125.238 18.6085V14.6469H128.481L128.482 14.6488ZM119.039 17.5106C119.039 21.9769 116.977 23.8623 113.652 23.8623C110.326 23.8623 108.264 21.9769 108.264 17.5106C108.264 13.0444 110.326 11.1589 113.652 11.1589C116.977 11.1589 119.039 13.0444 119.039 17.5106ZM114.786 17.5106C114.786 15.9198 114.523 14.6488 113.651 14.6488C112.778 14.6488 112.516 15.9198 112.516 17.5106C112.516 19.1015 112.778 20.3918 113.651 20.3918C114.523 20.3918 114.786 19.1015 114.786 17.5106ZM75.175 11.1657C73.3397 11.1657 71.8849 11.9708 71.157 13.8165L70.8469 11.7744C70.8244 11.6295 70.6991 11.5226 70.5524 11.5226H67.6702C67.5059 11.5226 67.3718 11.6548 67.3718 11.8191V23.1992C67.3718 23.3625 67.5049 23.4957 67.6702 23.4957H71.9886C72.1529 23.4957 72.287 23.3635 72.287 23.1992L72.2919 15.6475C72.2919 14.9444 72.7693 14.6488 73.1841 14.6488C73.5989 14.6488 74.0675 14.8715 74.0675 15.6067V23.1982C74.0675 23.3616 74.2006 23.4948 74.3659 23.4948H78.6833C78.8477 23.4948 78.9817 23.3625 78.9817 23.1982V14.9989C78.9817 12.6282 77.7265 11.1657 75.176 11.1657H75.175ZM97.4271 12.0652L96.1142 14.7898C96.034 14.9551 95.8207 15.0125 95.671 14.9046C95.447 14.7422 95.2494 14.6498 94.8307 14.6488C94.2114 14.6469 93.1959 14.9989 93.1959 16.3428V23.1992C93.1959 23.3625 93.0628 23.4957 92.8975 23.4957H88.5801C88.4157 23.4957 88.2817 23.3635 88.2817 23.1992V11.8182C88.2817 11.6548 88.4148 11.5216 88.5801 11.5216H91.4623C91.61 11.5216 91.7352 11.6286 91.7567 11.7734L92.0776 13.8116C92.7957 11.6373 94.0568 11.1657 95.4304 11.1657C96.4175 11.1657 97.0339 11.4769 97.3244 11.6888C97.4448 11.7764 97.4937 11.931 97.4281 12.0652H97.4271ZM92.3066 16.4876C92.3066 16.4876 92.2997 16.4808 92.2968 16.4779V16.4876H92.3066ZM86.8905 10.1476C87.0881 10.2643 87.3347 10.1204 87.3347 9.89185V6.90755C87.3347 6.71501 87.2173 6.53998 87.0412 6.45927C83.0183 4.6049 79.6352 5.95265 79.6352 8.57522C79.6352 10.6717 81.9441 11.5216 81.9441 11.5216H80.5989C80.4355 11.5226 80.3034 11.6548 80.3034 11.8182V23.1982C80.3034 23.3616 80.4365 23.4948 80.6018 23.4948H84.9172C85.0816 23.4948 85.2156 23.3625 85.2156 23.1982V14.6479H87.0383C87.2026 14.6479 87.3366 14.5156 87.3366 14.3513V11.8182C87.3366 11.6568 87.2036 11.5226 87.0412 11.5226C85.9807 11.5196 84.2774 11.1375 84.2774 10.1602C84.2774 9.26951 85.696 9.4426 86.8925 10.1476H86.8905Z" fill="var(--text-inverse)"></path></svg>