<?xml version="1.0" encoding="UTF-8"?>
<svg xmlns="http://www.w3.org/2000/svg" viewBox="0 0 100 36" fill="none" preserveAspectRatio="xMidYMid meet"><path fill="#146139" d="M10.56 7.324c5.86 0 10.21 4.363 10.21 10.636s-4.349 10.715-10.21 10.715c-2.571 0-4.738-.757-6.428-2.004v6.492C4.132 34.73 2.846 36 1.258 36H0V7.831h1.258a2.87 2.87 0 0 1 2.68 1.818C5.655 8.226 7.89 7.324 10.56 7.324m12.904 2.253c6.473-3.558 11.262-2.338 13.394-.21 2.282 2.273 2.713 4.787 2.713 8.632v3.046c0 4.784-4.357 7.643-8.57 7.643-2.55 0-4.723-.712-6.288-2.06-1.468-1.265-2.31-3.05-2.31-4.898 0-2.477 1.302-4.507 3.664-5.716 2.584-1.32 6.163-1.463 9.264-.548-.174-1.558-.584-2.407-1.41-3.232-.801-.797-3.015-1.316-6.247-.113a2.88 2.88 0 0 1-3.498-1.283zm45.535-2.266c2.55 0 4.723.712 6.288 2.06 1.468 1.265 2.31 3.05 2.31 4.897 0 2.478-1.303 4.507-3.665 5.716-2.584 1.32-6.162 1.463-9.263.548.174 1.558.584 2.407 1.41 3.232.801.797 3.015 1.318 6.247.114a2.88 2.88 0 0 1 3.498 1.283l.711 1.26c-2.957 1.625-5.564 2.254-7.725 2.254-2.57 0-4.51-.887-5.668-2.043-2.282-2.274-2.713-4.788-2.713-8.633v-3.045c0-4.784 4.357-7.643 8.57-7.643M100 28.168h-1.258a2.87 2.87 0 0 1-2.681-1.818c-1.718 1.422-3.953 2.325-6.622 2.325-5.86 0-10.21-4.363-10.21-10.636S83.58 7.325 89.44 7.325c2.572 0 4.738.755 6.428 2.002v-6.49C95.867 1.27 97.154 0 98.742 0H100zM42.378 7.831c1.203 0 2.28.74 2.696 1.855l4.927 13.168 4.926-13.168h-.003A2.87 2.87 0 0 1 57.62 7.83h2.403l-6.915 18.484a2.87 2.87 0 0 1-2.696 1.854h-.826a2.87 2.87 0 0 1-2.697-1.854L39.976 7.831zM31.236 18.957c-1.21 0-2.372.22-3.266.677-1.286.657-1.434 1.511-1.434 2.096 0 1.435 1.382 2.881 4.467 2.881 1.448 0 4.437-.872 4.437-3.566v-1.179c-1.228-.595-2.752-.909-4.202-.909zM10.56 11.401c-2.351 0-3.826 1.107-4.65 2.034a7.05 7.05 0 0 0-1.778 4.703c0 1.781.605 3.41 1.705 4.588 1.146 1.225 2.78 1.872 4.724 1.872 3.636 0 6.078-2.715 6.078-6.638s-2.444-6.559-6.078-6.559m78.88.001c-3.637 0-6.079 2.714-6.079 6.637s2.444 6.558 6.078 6.559c2.352 0 3.827-1.107 4.652-2.033a7.05 7.05 0 0 0 1.776-4.663v-.088c-.01-1.763-.615-3.373-1.704-4.54-1.146-1.224-2.78-1.872-4.724-1.872m-20.445-.014c-1.448 0-4.437.872-4.437 3.566v1.179h.002c2.256 1.092 5.504 1.237 7.467.232 1.287-.657 1.434-1.512 1.434-2.097 0-1.434-1.381-2.88-4.466-2.88"></path></svg>